<svg width="300" height="300" viewBox="0 0 300 300" fill="none" xmlns="http://www.w3.org/2000/svg">
<g clip-path="url(#clip0_116_5)">
<rect width="300" height="300" fill="white"/>
<path d="M0 150C-3.34651e-06 188.28 14.6349 225.111 40.9077 252.951C67.1804 280.791 103.103 297.533 141.318 299.749C179.534 301.964 217.15 289.485 246.464 264.868C275.778 240.251 294.571 205.357 298.995 167.334C303.419 129.311 293.138 91.0356 270.259 60.3459C247.379 29.6563 213.632 8.875 175.929 2.25802C138.226 -4.35896 99.419 3.68907 67.4566 24.7539C35.4941 45.8187 12.7945 78.3064 4.00641 115.564L17.636 118.778C25.6036 84.9995 46.1841 55.5448 75.1626 36.4465C104.141 17.3482 139.325 10.0516 173.508 16.0508C207.692 22.05 238.288 40.8912 259.032 68.7158C279.775 96.5403 289.096 131.243 285.085 165.716C281.075 200.189 264.036 231.825 237.459 254.144C210.881 276.463 176.776 287.777 142.129 285.768C107.481 283.76 74.9122 268.581 51.0922 243.34C27.2722 218.099 14.0036 184.706 14.0036 150L0 150Z" fill="#2E2B2B"/>
<path d="M172.041 75.4972C172.041 72.0499 169.149 69.245 165.594 69.245C164.76 69.245 163.961 69.3999 163.229 69.6808V61.4622C163.229 58.0148 160.337 55.2105 156.782 55.2105C155.873 55.2105 155.007 55.3937 154.222 55.7243C153.518 53.0129 150.982 51 147.97 51C145.42 51 143.212 52.4425 142.166 54.5301C141.268 54.0687 140.243 53.807 139.158 53.807C135.603 53.807 132.71 56.6119 132.71 60.0592V62.5645C131.985 62.2889 131.196 62.1372 130.372 62.1372C126.824 62.1372 123.938 64.9421 123.938 68.3932L123.993 96.3949C123.993 102.932 126.491 109.097 131.028 113.755C135.579 118.427 141.612 121 148.014 121C154.417 121 160.449 118.427 165.001 113.755C169.537 109.097 172.036 102.932 172.036 96.3949V87.1327H172.035C172.038 86.7413 172.038 84.9346 172.041 75.4972ZM167.935 87.1092V87.1327V96.3949C167.935 101.857 165.849 107.006 162.062 110.893C158.29 114.765 153.301 116.898 148.014 116.898C142.728 116.898 137.739 114.765 133.967 110.893C130.18 107.006 128.094 101.857 128.094 96.3912L128.039 68.3889C128.039 67.2033 129.086 66.2388 130.372 66.2388C131.658 66.2388 132.705 67.2033 132.705 68.3889V82.1377C132.705 83.2699 133.629 84.1885 134.762 84.1885C135.894 84.1885 136.813 83.2699 136.813 82.1377V60.0587C136.813 58.8731 137.865 57.9086 139.158 57.9086C140.451 57.9086 141.503 58.8731 141.503 60.0587V78.0361C141.503 79.1683 142.422 80.0869 143.554 80.0869H143.574C144.706 80.0869 145.625 79.1683 145.625 78.0361V57.2517C145.625 56.0661 146.677 55.1016 147.97 55.1016C149.264 55.1016 150.316 56.0661 150.316 57.2538L150.335 78.0377C150.336 79.1699 151.254 80.0869 152.386 80.0869H152.387C153.519 80.0864 154.436 79.1683 154.436 78.0361V61.4622C154.436 60.2766 155.489 59.3121 156.782 59.3121C158.076 59.3121 159.128 60.2766 159.128 61.4622V87.6064C159.128 88.7386 160.046 89.6572 161.178 89.6572H161.198C162.33 89.6572 163.248 88.7386 163.248 87.6064V75.4972C163.248 74.3116 164.301 73.3466 165.594 73.3466C166.887 73.3466 167.94 74.3116 167.94 75.4967C167.939 79.39 167.936 86.7952 167.935 87.1092Z" fill="url(#paint0_linear_116_5)"/>
<path d="M132.922 134.616H151.826C158.658 134.616 163.821 136.286 167.313 139.626C171.489 143.574 173.577 150.635 173.577 160.808C173.577 169.159 172.02 175.612 168.907 180.167C165.871 184.722 160.177 187 151.826 187H132.922V134.616ZM145.79 182.331H149.776C152.661 182.331 154.9 181.306 156.495 179.256C158.165 177.13 159.266 174.625 159.797 171.74C160.329 168.779 160.594 165.135 160.594 160.808C160.594 156.48 160.329 152.874 159.797 149.989C159.266 147.028 158.165 144.523 156.495 142.473C154.9 140.348 152.661 139.285 149.776 139.285H145.79V182.331Z" fill="#2E2B2B"/>
<path d="M130.249 180.964C127.06 185.671 121.329 188.025 113.053 188.025C108.65 188.025 104.93 187.38 101.893 186.089C94.5291 182.749 90.847 174.321 90.847 160.808C90.847 152.836 92.2515 146.459 95.0605 141.676C98.2491 136.286 104.247 133.591 113.053 133.591C121.329 133.591 127.06 136.02 130.249 140.879C133.514 145.662 135.146 152.343 135.146 160.922C135.146 169.501 133.514 176.181 130.249 180.964ZM103.715 160.808C103.715 165.287 103.943 169.045 104.399 172.082C104.854 175.119 105.803 177.7 107.246 179.826C108.688 181.875 110.624 182.9 113.053 182.9C119.279 182.9 122.391 175.536 122.391 160.808C122.391 146.079 119.279 138.715 113.053 138.715C110.624 138.715 108.688 139.778 107.246 141.904C105.803 143.954 104.854 146.497 104.399 149.534C103.943 152.571 103.715 156.329 103.715 160.808Z" fill="#2E2B2B"/>
<path d="M205.249 200.964C202.06 205.671 196.329 208.025 188.053 208.025C183.65 208.025 179.93 207.38 176.893 206.089C169.529 202.749 165.847 194.321 165.847 180.808C165.847 172.836 167.251 166.459 170.06 161.676C173.249 156.286 179.247 153.591 188.053 153.591C196.329 153.591 202.06 156.02 205.249 160.879C208.514 165.662 210.146 172.343 210.146 180.922C210.146 189.501 208.514 196.181 205.249 200.964ZM178.715 180.808C178.715 185.287 178.943 189.045 179.399 192.082C179.854 195.119 180.803 197.7 182.246 199.826C183.688 201.875 185.624 202.9 188.053 202.9C194.279 202.9 197.391 195.536 197.391 180.808C197.391 166.079 194.279 158.715 188.053 158.715C185.624 158.715 183.688 159.778 182.246 161.904C180.803 163.954 179.854 166.497 179.399 169.534C178.943 172.571 178.715 176.329 178.715 180.808Z" fill="#2E2B2B"/>
<path d="M125.922 228.868C125.324 229.751 124.249 230.192 122.698 230.192C121.872 230.192 121.174 230.071 120.605 229.829C119.224 229.203 118.534 227.623 118.534 225.089C118.534 223.594 118.797 222.399 119.324 221.502C119.922 220.491 121.046 219.986 122.698 219.986C124.249 219.986 125.324 220.441 125.922 221.352C126.534 222.249 126.84 223.502 126.84 225.11C126.84 226.719 126.534 227.972 125.922 228.868ZM120.947 225.089C120.947 225.929 120.989 226.633 121.075 227.203C121.16 227.772 121.338 228.256 121.609 228.655C121.879 229.039 122.242 229.231 122.698 229.231C123.865 229.231 124.448 227.851 124.448 225.089C124.448 222.327 123.865 220.947 122.698 220.947C122.242 220.947 121.879 221.146 121.609 221.544C121.338 221.929 121.16 222.406 121.075 222.975C120.989 223.544 120.947 224.249 120.947 225.089ZM134.699 220.178V221.331H132.179V230H129.788V221.331H127.226V220.178H134.699ZM145.493 228.868C144.938 229.751 143.927 230.192 142.461 230.192C141.707 230.192 141.073 230.071 140.561 229.829C139.294 229.203 138.66 227.623 138.66 225.089C138.66 223.552 138.902 222.342 139.386 221.459C139.942 220.463 140.966 219.964 142.461 219.964C143.927 219.964 144.938 220.42 145.493 221.331C146.063 222.228 146.347 223.488 146.347 225.11C146.347 226.719 146.063 227.972 145.493 228.868ZM141.052 225.089C141.052 227.865 141.522 229.253 142.461 229.253C143.443 229.253 143.934 227.865 143.934 225.089C143.934 223.609 143.835 222.548 143.635 221.907C143.436 221.253 143.052 220.925 142.482 220.925C141.913 220.925 141.529 221.253 141.329 221.907C141.144 222.548 141.052 223.609 141.052 225.089ZM151.524 220.178H155.069C156.35 220.178 157.318 220.491 157.973 221.117C158.756 221.858 159.147 223.181 159.147 225.089C159.147 226.655 158.855 227.865 158.272 228.719C157.702 229.573 156.635 230 155.069 230H151.524V220.178ZM153.937 229.125H154.685C155.225 229.125 155.645 228.932 155.944 228.548C156.257 228.149 156.464 227.68 156.564 227.139C156.663 226.584 156.713 225.9 156.713 225.089C156.713 224.278 156.663 223.601 156.564 223.06C156.464 222.505 156.257 222.036 155.944 221.651C155.645 221.253 155.225 221.053 154.685 221.053H153.937V229.125ZM167.734 228.868C167.136 229.751 166.062 230.192 164.51 230.192C163.684 230.192 162.987 230.071 162.417 229.829C161.037 229.203 160.346 227.623 160.346 225.089C160.346 223.594 160.61 222.399 161.136 221.502C161.734 220.491 162.859 219.986 164.51 219.986C166.062 219.986 167.136 220.441 167.734 221.352C168.346 222.249 168.652 223.502 168.652 225.11C168.652 226.719 168.346 227.972 167.734 228.868ZM162.759 225.089C162.759 225.929 162.802 226.633 162.887 227.203C162.973 227.772 163.151 228.256 163.421 228.655C163.692 229.039 164.054 229.231 164.51 229.231C165.677 229.231 166.261 227.851 166.261 225.089C166.261 222.327 165.677 220.947 164.51 220.947C164.054 220.947 163.692 221.146 163.421 221.544C163.151 221.929 162.973 222.406 162.887 222.975C162.802 223.544 162.759 224.249 162.759 225.089ZM180.497 229.06V230H174.198V229.06H176.226V222.1L174.155 222.142V221.246C174.696 221.217 175.301 221.103 175.97 220.904C176.653 220.705 177.216 220.463 177.657 220.178H178.596V229.06H180.497Z" fill="#2E2B2B"/>
</g>
<defs>
<linearGradient id="paint0_linear_116_5" x1="147.989" y1="51" x2="147.989" y2="121" gradientUnits="userSpaceOnUse">
<stop stop-color="#79DFFF"/>
<stop offset="1" stop-color="#B65959" stop-opacity="0"/>
</linearGradient>
<clipPath id="clip0_116_5">
<rect width="300" height="300" fill="white"/>
</clipPath>
</defs>
</svg>
